<mxfile host="65bd71144e">
    <diagram id="7cBm0Glo1ITQvWhN2-sF" name="Page-1">
        <mxGraphModel dx="549" dy="361" grid="1" gridSize="10" guides="1" tooltips="1" connect="1" arrows="1" fold="1" page="1" pageScale="1" pageWidth="827" pageHeight="1169" math="0" shadow="0">
            <root>
                <mxCell id="0"/>
                <mxCell id="1" parent="0"/>
                <mxCell id="3" value="" style="endArrow=none;html=1;" edge="1" parent="1">
                    <mxGeometry width="50" height="50" relative="1" as="geometry">
                        <mxPoint x="160" y="170" as="sourcePoint"/>
                        <mxPoint x="210" y="120" as="targetPoint"/>
                    </mxGeometry>
                </mxCell>
                <mxCell id="5" value="" style="endArrow=none;html=1;" edge="1" parent="1">
                    <mxGeometry width="50" height="50" relative="1" as="geometry">
                        <mxPoint x="160" y="120" as="sourcePoint"/>
                        <mxPoint x="210" y="120" as="targetPoint"/>
                    </mxGeometry>
                </mxCell>
                <mxCell id="6" value="" style="endArrow=none;html=1;" edge="1" parent="1">
                    <mxGeometry width="50" height="50" relative="1" as="geometry">
                        <mxPoint x="160" y="170" as="sourcePoint"/>
                        <mxPoint x="160" y="120" as="targetPoint"/>
                    </mxGeometry>
                </mxCell>
                <mxCell id="7" value="" style="shape=flexArrow;endArrow=classic;html=1;" edge="1" parent="1" target="8">
                    <mxGeometry width="50" height="50" relative="1" as="geometry">
                        <mxPoint x="220" y="150" as="sourcePoint"/>
                        <mxPoint x="280" y="150" as="targetPoint"/>
                    </mxGeometry>
                </mxCell>
                <mxCell id="8" value="dividePoly()" style="whiteSpace=wrap;html=1;aspect=fixed;" vertex="1" parent="1">
                    <mxGeometry x="290" y="109.99999999999989" width="80" height="80" as="geometry"/>
                </mxCell>
                <mxCell id="9" value="v2" style="text;strokeColor=none;fillColor=none;align=left;verticalAlign=middle;spacingLeft=4;spacingRight=4;overflow=hidden;points=[[0,0.5],[1,0.5]];portConstraint=eastwest;rotatable=0;" vertex="1" parent="1">
                    <mxGeometry x="140" y="90" width="80" height="30" as="geometry"/>
                </mxCell>
                <mxCell id="10" value="v0" style="text;strokeColor=none;fillColor=none;align=left;verticalAlign=middle;spacingLeft=4;spacingRight=4;overflow=hidden;points=[[0,0.5],[1,0.5]];portConstraint=eastwest;rotatable=0;" vertex="1" parent="1">
                    <mxGeometry x="210" y="90" width="80" height="30" as="geometry"/>
                </mxCell>
                <mxCell id="11" value="v1" style="text;strokeColor=none;fillColor=none;align=left;verticalAlign=middle;spacingLeft=4;spacingRight=4;overflow=hidden;points=[[0,0.5],[1,0.5]];portConstraint=eastwest;rotatable=0;" vertex="1" parent="1">
                    <mxGeometry x="140" y="170" width="80" height="30" as="geometry"/>
                </mxCell>
                <mxCell id="12" value="" style="shape=flexArrow;endArrow=classic;html=1;exitX=1;exitY=0.5;exitDx=0;exitDy=0;" edge="1" parent="1" source="8">
                    <mxGeometry width="50" height="50" relative="1" as="geometry">
                        <mxPoint x="550" y="320" as="sourcePoint"/>
                        <mxPoint x="450" y="150" as="targetPoint"/>
                    </mxGeometry>
                </mxCell>
                <mxCell id="13" value="" style="endArrow=none;html=1;" edge="1" parent="1">
                    <mxGeometry width="50" height="50" relative="1" as="geometry">
                        <mxPoint x="510" y="170" as="sourcePoint"/>
                        <mxPoint x="550" y="124.99999999999989" as="targetPoint"/>
                    </mxGeometry>
                </mxCell>
                <mxCell id="14" value="" style="endArrow=none;html=1;" edge="1" parent="1">
                    <mxGeometry width="50" height="50" relative="1" as="geometry">
                        <mxPoint x="500" y="124.99999999999989" as="sourcePoint"/>
                        <mxPoint x="550" y="124.99999999999989" as="targetPoint"/>
                    </mxGeometry>
                </mxCell>
                <mxCell id="15" value="" style="endArrow=none;html=1;" edge="1" parent="1">
                    <mxGeometry width="50" height="50" relative="1" as="geometry">
                        <mxPoint x="500" y="170" as="sourcePoint"/>
                        <mxPoint x="500" y="124.99999999999989" as="targetPoint"/>
                    </mxGeometry>
                </mxCell>
                <mxCell id="16" value="v2" style="text;strokeColor=none;fillColor=none;align=left;verticalAlign=middle;spacingLeft=4;spacingRight=4;overflow=hidden;points=[[0,0.5],[1,0.5]];portConstraint=eastwest;rotatable=0;" vertex="1" parent="1">
                    <mxGeometry x="450" y="65" width="80" height="30" as="geometry"/>
                </mxCell>
                <mxCell id="17" value="v1" style="text;strokeColor=none;fillColor=none;align=left;verticalAlign=middle;spacingLeft=4;spacingRight=4;overflow=hidden;points=[[0,0.5],[1,0.5]];portConstraint=eastwest;rotatable=0;" vertex="1" parent="1">
                    <mxGeometry x="480" y="200" width="80" height="30" as="geometry"/>
                </mxCell>
                <mxCell id="18" value="v0" style="text;strokeColor=none;fillColor=none;align=left;verticalAlign=middle;spacingLeft=4;spacingRight=4;overflow=hidden;points=[[0,0.5],[1,0.5]];portConstraint=eastwest;rotatable=0;" vertex="1" parent="1">
                    <mxGeometry x="570" y="65" width="80" height="30" as="geometry"/>
                </mxCell>
                <mxCell id="19" value="" style="endArrow=none;html=1;" edge="1" parent="1">
                    <mxGeometry width="50" height="50" relative="1" as="geometry">
                        <mxPoint x="500" y="170" as="sourcePoint"/>
                        <mxPoint x="510" y="170" as="targetPoint"/>
                    </mxGeometry>
                </mxCell>
                <mxCell id="20" value="" style="endArrow=none;html=1;" edge="1" parent="1">
                    <mxGeometry width="50" height="50" relative="1" as="geometry">
                        <mxPoint x="500" y="190" as="sourcePoint"/>
                        <mxPoint x="510" y="180" as="targetPoint"/>
                    </mxGeometry>
                </mxCell>
                <mxCell id="21" value="" style="endArrow=none;html=1;" edge="1" parent="1">
                    <mxGeometry width="50" height="50" relative="1" as="geometry">
                        <mxPoint x="500" y="180" as="sourcePoint"/>
                        <mxPoint x="510" y="180" as="targetPoint"/>
                    </mxGeometry>
                </mxCell>
                <mxCell id="22" value="" style="endArrow=none;html=1;" edge="1" parent="1">
                    <mxGeometry width="50" height="50" relative="1" as="geometry">
                        <mxPoint x="500" y="180" as="sourcePoint"/>
                        <mxPoint x="500" y="190" as="targetPoint"/>
                    </mxGeometry>
                </mxCell>
                <mxCell id="23" value="out2" style="text;strokeColor=none;fillColor=none;align=left;verticalAlign=middle;spacingLeft=4;spacingRight=4;overflow=hidden;points=[[0,0.5],[1,0.5]];portConstraint=eastwest;rotatable=0;" vertex="1" parent="1">
                    <mxGeometry x="500" y="120" width="80" height="30" as="geometry"/>
                </mxCell>
                <mxCell id="24" value="out1" style="text;strokeColor=none;fillColor=none;align=left;verticalAlign=middle;spacingLeft=4;spacingRight=4;overflow=hidden;points=[[0,0.5],[1,0.5]];portConstraint=eastwest;rotatable=0;" vertex="1" parent="1">
                    <mxGeometry x="510" y="170" width="80" height="30" as="geometry"/>
                </mxCell>
            </root>
        </mxGraphModel>
    </diagram>
</mxfile>